<svg width="94" height="90" viewBox="0 0 94 90" fill="none" xmlns="http://www.w3.org/2000/svg">
<path d="M23.0664 39.4822L7.01177 18.4975C4.78716 15.5897 7.31408 11.469 10.9144 12.1333L34.8807 16.5553C36.3776 16.8315 37.6671 17.7745 38.3841 19.1172L46.9358 35.1332C47.6037 36.384 46.7939 37.9133 45.384 38.0639L24.8673 40.2556C24.1732 40.3298 23.4906 40.0366 23.0664 39.4822Z" fill="#3A664B"/>
<path d="M1.88424 45.8877C2.18394 40.5929 6.56495 36.4529 11.8683 36.4529H81.9683C87.2716 36.4529 91.6526 40.5929 91.9523 45.8877L93.8203 78.8877C94.1449 84.6235 89.5812 89.4529 83.8362 89.4529H10.0003C4.25535 89.4529 -0.308357 84.6235 0.0163108 78.8877L1.88424 45.8877Z" fill="#FF8519"/>
<path d="M47.4182 0C49.3512 0 50.9182 1.567 50.9182 3.5V42.4805H55.9182C57.8511 42.4805 59.4181 44.0476 59.4182 45.9805C59.4182 47.9135 57.8512 49.4805 55.9182 49.4805H38.9182C36.9852 49.4805 35.4182 47.9135 35.4182 45.9805C35.4183 44.0476 36.9853 42.4805 38.9182 42.4805H43.9182V3.5C43.9182 1.567 45.4852 0 47.4182 0Z" fill="#202020"/>
</svg>
