<svg width="101" height="90" viewBox="0 0 101 90" fill="none" xmlns="http://www.w3.org/2000/svg">
<path d="M29.6482 40.0018L13.5936 19.017C11.369 16.1093 13.8959 11.9886 17.4962 12.6529L41.4625 17.0748C42.9594 17.351 44.2489 18.2941 44.9659 19.6368L53.5176 35.6527C54.1855 36.9035 53.3757 38.4328 51.9658 38.5834L31.4491 40.7752C30.755 40.8493 30.0724 40.5562 29.6482 40.0018Z" fill="#3A664B"/>
<path d="M8.46595 46.407C8.76566 41.1122 13.1467 36.9722 18.45 36.9722H88.55C93.8533 36.9722 98.2343 41.1122 98.534 46.407L100.402 79.407C100.727 85.1428 96.1629 89.9722 90.418 89.9722H16.582C10.8371 89.9722 6.27336 85.1428 6.59803 79.407L8.46595 46.407Z" fill="#FF8519"/>
<path d="M54 4.01904V46.019" stroke="#3A664B" stroke-width="7.5" stroke-linecap="round"/>
<path d="M45.5 46.5H62.5" stroke="#3A664B" stroke-width="7" stroke-linecap="round"/>
</svg>
