<svg width="265" height="166" viewBox="0 0 265 166" fill="none" xmlns="http://www.w3.org/2000/svg">
<path d="M63.7873 98.4036L8.46247 26.0897C5.25904 21.9025 8.8978 15.9687 14.0823 16.9253L101.906 33.1294C103.63 33.4475 105.116 34.5339 105.942 36.0807L132.531 85.8784C134.455 89.4807 132.122 93.8851 128.062 94.3189L68.9738 100.631C66.9747 100.845 65.0089 100 63.7873 98.4036Z" fill="#3A664B"/>
<path d="M233.424 89.6793H31.5359C16.2624 89.6793 3.6451 101.603 2.78194 116.852L0 165.999H264.96L262.178 116.852C261.315 101.603 248.698 89.6793 233.424 89.6793Z" fill="#FF8519"/>
<path d="M133.44 4.31995L133.44 108" stroke="#3A664B" stroke-width="8.64" stroke-linecap="round"/>
<path d="M116.161 107.999L150.721 107.999" stroke="#3A664B" stroke-width="8.64" stroke-linecap="round"/>
</svg>
