<svg preserveAspectRatio="none" width="100%" height="100%" overflow="visible" style="display: block;" viewBox="0 0 171.4 98.8163" fill="none" xmlns="http://www.w3.org/2000/svg">
<g id="Group 2147230790">
<path id="Type05" d="M93.0018 74.6195C94.9983 74.9065 96.3842 76.7579 96.0972 78.7544L95.0278 86.1926C94.7408 88.1891 92.8895 89.5751 90.8929 89.288L83.4548 88.2187C81.4583 87.9316 80.0723 86.0803 80.3593 84.0838L81.4287 76.6456C81.7157 74.6491 83.5671 73.2632 85.5636 73.5502L93.0018 74.6195ZM108.937 76.9104C110.933 77.1974 112.319 79.0488 112.032 81.0453L110.963 88.4844C110.675 90.4807 108.824 91.8659 106.828 91.5789L99.3896 90.5096C97.3932 90.2225 96.0072 88.372 96.294 86.3756L97.3635 78.9365C97.6506 76.94 99.5019 75.554 101.498 75.841L108.937 76.9104ZM124.871 79.2013C126.868 79.4883 128.254 81.3397 127.967 83.3362L126.897 90.7743C126.61 92.7709 124.759 94.1568 122.763 93.8698L115.324 92.8004C113.328 92.5134 111.942 90.662 112.229 88.6655L113.298 81.2273C113.585 79.2308 115.437 77.8449 117.433 78.1319L124.871 79.2013ZM140.805 81.492C142.802 81.779 144.188 83.6304 143.901 85.6269L142.831 93.0651C142.544 95.0616 140.693 96.4475 138.696 96.1605L131.258 95.0912C129.262 94.8041 127.876 92.9528 128.163 90.9563L129.232 83.5181C129.519 81.5216 131.371 80.1356 133.367 80.4226L140.805 81.492Z" fill="var(--fill-0, #DD543E)"/>
<path id="Type05_2" d="M17.7419 31.1996C19.7384 31.4866 21.1243 33.338 20.8373 35.3345L19.768 42.7727C19.4809 44.7692 17.6296 46.1551 15.633 45.8681L8.19488 44.7987C6.19836 44.5117 4.81241 42.6604 5.09944 40.6638L6.16879 33.2257C6.45582 31.2291 8.30718 29.8432 10.3037 30.1302L17.7419 31.1996ZM33.6767 33.4904C35.6732 33.7775 37.0591 35.6288 36.7721 37.6254L35.7028 45.0635C35.4157 47.06 33.5644 48.446 31.5679 48.159L24.1297 47.0896C22.1332 46.8026 20.7472 44.9512 21.0342 42.9547L22.1036 35.5165C22.3906 33.52 24.242 32.1341 26.2385 32.4211L33.6767 33.4904ZM49.6105 35.7812C51.607 36.0682 52.993 37.9196 52.7059 39.9161L51.6366 47.3543C51.3496 49.3508 49.4982 50.7367 47.5017 50.4497L40.0635 49.3804C38.067 49.0933 36.681 47.242 36.9681 45.2454L38.0374 37.8073C38.3245 35.8107 40.1758 34.4248 42.1723 34.7118L49.6105 35.7812ZM65.5453 38.0721C67.5418 38.3591 68.9278 40.2104 68.6407 42.207L67.5714 49.6451C67.2844 51.6417 65.433 53.0276 63.4365 52.7406L55.9983 51.6712C54.0018 51.3842 52.6158 49.5328 52.9029 47.5363L53.9722 40.0981C54.2593 38.1016 56.1106 36.7157 58.1071 37.0027L65.5453 38.0721Z" fill="var(--fill-0, #DD543E)"/>
<path id="Type01" d="M156.426 83.64C158.421 83.9269 159.806 85.7767 159.519 87.7716L158.45 95.204C158.164 97.1989 156.314 98.5836 154.319 98.297L146.886 97.2283C144.891 96.9413 143.506 95.0915 143.793 93.0967L144.861 85.6643C145.148 83.6695 146.998 82.2848 148.993 82.5714L156.426 83.64ZM158.641 67.7071C160.636 67.9939 162.02 69.8437 161.734 71.8387L160.665 79.2711C160.378 81.266 158.528 82.6508 156.534 82.364L149.101 81.2955C147.106 81.0087 145.721 79.1589 146.008 77.1639L147.077 69.7315C147.364 67.7366 149.213 66.3518 151.208 66.6386L158.641 67.7071ZM145.082 49.5065C147.077 49.7933 148.462 51.6431 148.175 53.6381L147.106 61.0705C146.82 63.0654 144.97 64.4502 142.975 64.1634L135.542 63.0949C133.547 62.8081 132.163 60.9583 132.449 58.9633L133.518 51.5309C133.805 49.536 135.655 48.1512 137.65 48.438L145.082 49.5065ZM161.004 51.7956C162.999 52.0824 164.384 53.9322 164.097 55.9272L163.029 63.3595C162.742 65.3545 160.892 66.7393 158.897 66.4525L151.465 65.384C149.47 65.0972 148.085 63.2473 148.372 61.2524L149.44 53.82C149.727 51.825 151.577 50.4402 153.572 50.727L161.004 51.7956Z" fill="var(--fill-0, #9E2D1A)"/>
<path id="Type01_2" d="M81.2822 68.3383C80.9953 70.3331 79.1455 71.718 77.1506 71.4312L69.7182 70.3627C67.7233 70.0759 66.3385 68.226 66.6253 66.2311L67.6939 58.7978C67.9809 56.803 69.8306 55.419 71.8254 55.7058L79.2578 56.7743C81.2526 57.0611 82.6374 58.9101 82.3508 60.9049L81.2822 68.3383ZM97.2151 70.5529C96.9283 72.5479 95.0785 73.9327 93.0835 73.6459L85.6512 72.5773C83.6562 72.2905 82.2714 70.4407 82.5582 68.4457L83.6267 61.0134C83.9135 59.0184 85.7633 57.6336 87.7583 57.9204L95.1907 58.9889C97.1857 59.2757 98.5704 61.1256 98.2836 63.1205L97.2151 70.5529ZM115.415 56.994C115.128 58.989 113.278 60.3738 111.283 60.087L103.851 59.0185C101.856 58.7316 100.471 56.8818 100.758 54.8869L101.826 47.4545C102.113 45.4595 103.963 44.0747 105.958 44.3615L113.39 45.4301C115.385 45.7169 116.77 47.5667 116.483 49.5616L115.415 56.994ZM113.126 72.9163C112.839 74.9112 110.989 76.296 108.994 76.0092L101.562 74.9407C99.5668 74.6539 98.182 72.8041 98.4688 70.8091L99.5373 63.3767C99.8241 61.3818 101.674 59.997 103.669 60.2838L111.101 61.3523C113.096 61.6391 114.481 63.4889 114.194 65.4839L113.126 72.9163Z" fill="var(--fill-0, #9E2D1A)"/>
<path id="Type06" d="M13.1311 63.0925C15.1229 63.3789 16.5054 65.2257 16.2191 67.2175L15.1522 74.6383C14.8659 76.6301 13.0191 78.0126 11.0272 77.7263L3.60648 76.6594C1.61463 76.3731 0.232127 74.5263 0.518486 72.5345L1.58534 65.1137C1.87169 63.1218 3.71845 61.7393 5.7103 62.0257L13.1311 63.0925ZM29.0282 65.378C31.0199 65.6644 32.4025 67.5112 32.1162 69.503L31.0493 76.9237C30.763 78.9155 28.9161 80.298 26.9244 80.0117L19.5026 78.9447C17.511 78.6581 16.1283 76.8115 16.4146 74.8198L17.4815 67.399C17.7678 65.4073 19.6148 64.0249 21.6064 64.311L29.0282 65.378ZM15.3962 47.3435C17.3878 47.63 18.7704 49.4768 18.4842 51.4684L17.4172 58.8902C17.1307 60.8817 15.2838 62.2642 13.2923 61.9782L5.87053 60.9112C3.87891 60.6247 2.49643 58.7778 2.78254 56.7862L3.84953 49.3645C4.13598 47.3728 5.98278 45.9902 7.97449 46.2765L15.3962 47.3435ZM31.2922 49.6298C33.284 49.9161 34.6666 51.7629 34.3802 53.7547L33.3134 61.1755C33.027 63.1673 31.1802 64.5498 29.1884 64.2635L21.7676 63.1966C19.7758 62.9103 18.3923 61.0634 18.6787 59.0715L19.7455 51.6508C20.0319 49.6589 21.8796 48.2765 23.8715 48.5629L31.2922 49.6298Z" fill="var(--fill-0, #FF8419)"/>
<path id="Type04" d="M60.3585 69.8887C62.3455 70.1743 63.7247 72.0167 63.4391 74.0037L62.3747 81.4071C62.0889 83.3939 60.2466 84.7733 58.2597 84.4876L50.8573 83.4234C48.8704 83.1378 47.4913 81.2953 47.7767 79.3084L48.8411 71.905C49.1268 69.918 50.9691 68.5388 52.9561 68.8245L60.3585 69.8887ZM76.2179 72.1687C78.2047 72.4546 79.5841 74.2968 79.2985 76.2837L78.2342 83.6861C77.9486 85.673 76.1061 87.0521 74.1192 86.7667L66.7159 85.7023C64.7289 85.4167 63.3497 83.5743 63.6353 81.5873L64.6995 74.1849C64.9852 72.1979 66.8275 70.8187 68.8145 71.1044L76.2179 72.1687ZM46.8651 51.6866C48.8521 51.9723 50.2313 53.8147 49.9456 55.8016L48.8813 63.205C48.5955 65.1919 46.7532 66.5712 44.7663 66.2856L37.3629 65.2212C35.3761 64.9354 33.9968 63.093 34.2824 61.1062L35.3467 53.7028C35.6324 51.7159 37.4748 50.3368 39.4617 50.6223L46.8651 51.6866ZM62.7235 53.9665C64.7105 54.2522 66.0897 56.0945 65.8041 58.0815L64.7397 65.4849C64.4539 67.4717 62.6116 68.8511 60.6247 68.5654L53.2223 67.5012C51.2354 67.2156 49.8563 65.3731 50.1418 63.3862L51.2061 55.9828C51.4918 53.9958 53.3341 52.6166 55.3211 52.9023L62.7235 53.9665Z" fill="var(--fill-0, #7B9C87)"/>
<path id="Type04_2" d="M60.3585 69.8887C62.3455 70.1743 63.7247 72.0167 63.4391 74.0037L62.3747 81.4071C62.0889 83.3939 60.2466 84.7733 58.2597 84.4876L50.8573 83.4234C48.8704 83.1378 47.4913 81.2953 47.7767 79.3084L48.8411 71.905C49.1268 69.918 50.9691 68.5388 52.9561 68.8245L60.3585 69.8887ZM76.2179 72.1687C78.2047 72.4546 79.5841 74.2968 79.2985 76.2837L78.2342 83.6861C77.9486 85.673 76.1061 87.0521 74.1192 86.7667L66.7159 85.7023C64.7289 85.4167 63.3497 83.5743 63.6353 81.5873L64.6995 74.1849C64.9852 72.1979 66.8275 70.8187 68.8145 71.1044L76.2179 72.1687ZM46.8651 51.6866C48.8521 51.9723 50.2313 53.8147 49.9456 55.8016L48.8813 63.205C48.5955 65.1919 46.7532 66.5712 44.7663 66.2856L37.3629 65.2212C35.3761 64.9354 33.9968 63.093 34.2824 61.1062L35.3467 53.7028C35.6324 51.7159 37.4748 50.3368 39.4617 50.6223L46.8651 51.6866ZM62.7235 53.9665C64.7105 54.2522 66.0897 56.0945 65.8041 58.0815L64.7397 65.4849C64.4539 67.4717 62.6116 68.8511 60.6247 68.5654L53.2223 67.5012C51.2354 67.2156 49.8563 65.3731 50.1418 63.3862L51.2061 55.9828C51.4918 53.9958 53.3341 52.6166 55.3211 52.9023L62.7235 53.9665Z" fill="var(--fill-0, #7B9C87)"/>
<path id="Type02" d="M119.408 61.4873C117.417 61.2012 115.57 62.5836 115.283 64.5753L114.217 71.9961C113.93 73.9878 115.313 75.8345 117.305 76.121L124.726 77.188C126.718 77.4742 128.565 76.0918 128.851 74.1L129.918 66.6792C130.204 64.6875 128.822 62.8408 126.83 62.5543L119.408 61.4873ZM121.769 45.601C119.777 45.3147 117.931 46.6973 117.644 48.689L116.577 56.1098C116.291 58.1016 117.673 59.9494 119.665 60.2357L127.086 61.3026C129.078 61.5889 130.925 60.2055 131.211 58.2136L132.278 50.7928C132.564 48.801 131.182 46.9542 129.19 46.6679L121.769 45.601ZM139.877 31.9787C137.886 31.6923 136.038 33.0747 135.751 35.0665L134.685 42.4873C134.398 44.4791 135.782 46.327 137.773 46.6134L145.194 47.6802C147.186 47.9665 149.033 46.5831 149.319 44.5913L150.386 37.1705C150.672 35.1787 149.29 33.3319 147.298 33.0455L139.877 31.9787ZM123.98 29.6932C121.988 29.4069 120.142 30.7894 119.855 32.7812L118.788 40.202C118.502 42.1938 119.885 44.0406 121.876 44.3269L129.297 45.3938C131.289 45.6802 133.136 44.2976 133.422 42.3058L134.489 34.885C134.775 32.8932 133.393 31.0464 131.401 30.7601L123.98 29.6932Z" fill="var(--fill-0, #2F44A1)"/>
<path id="Type03" d="M152.671 21.555C152.956 19.568 151.577 17.7257 149.59 17.44L142.187 16.3757C140.2 16.0903 138.357 17.4693 138.072 19.4562L137.007 26.8586C136.722 28.8455 138.101 30.6878 140.088 30.9736L147.491 32.038C149.478 32.3236 151.321 30.9445 151.606 28.9574L152.671 21.555ZM154.95 5.6966C155.236 3.70964 153.857 1.86732 151.87 1.58159L144.467 0.517237C142.48 0.231658 140.637 1.61082 140.352 3.59778L139.287 11.0002C139.002 12.9871 140.381 14.8295 142.368 15.1152L149.771 16.1795C151.758 16.4651 153.601 15.086 153.886 13.099L154.95 5.6966ZM166.333 39.6295C166.619 37.6426 165.24 35.8001 163.253 35.5145L155.849 34.4501C153.863 34.1648 152.02 35.5439 151.734 37.5307L150.67 44.9341C150.384 46.9209 151.764 48.7632 153.751 49.0491L161.154 50.1134C163.141 50.3991 164.983 49.0198 165.269 47.0329L166.333 39.6295ZM168.613 23.7711C168.899 21.7841 167.52 19.9417 165.533 19.656L158.13 18.5918C156.143 18.3062 154.301 19.6855 154.015 21.6724L152.951 29.0758C152.665 31.0628 154.044 32.9051 156.031 33.1908L163.434 34.255C165.421 34.5406 167.263 33.1614 167.549 31.1744L168.613 23.7711Z" fill="var(--fill-0, #7B9C87)"/>
<path id="Type03_2" d="M97.5516 41.2733C99.5386 41.5589 101.381 40.1797 101.667 38.1927L102.731 30.7894C103.016 28.8024 101.637 26.96 99.6504 26.6744L92.248 25.6101C90.2611 25.3245 88.4188 26.7038 88.133 28.6907L87.0686 36.0941C86.783 38.081 88.1622 39.9234 90.1492 40.2091L97.5516 41.2733ZM113.411 43.5533C115.398 43.8389 117.24 42.4598 117.526 40.4728L118.59 33.0694C118.876 31.0826 117.497 29.2401 115.51 28.9544L108.106 27.89C106.12 27.6045 104.277 28.9838 103.991 30.9706L102.927 38.374C102.641 40.3609 104.021 42.2032 106.008 42.489L113.411 43.5533ZM79.477 54.937C81.464 55.2226 83.3063 53.8434 83.592 51.8564L84.6563 44.453C84.9419 42.4661 83.5627 40.6237 81.5758 40.338L74.1734 39.2738C72.1865 38.9882 70.3442 40.3675 70.0584 42.3544L68.994 49.7577C68.7084 51.7447 70.0876 53.5871 72.0746 53.8727L79.477 54.937ZM95.3354 57.2169C97.3223 57.5025 99.1646 56.1232 99.4504 54.1363L100.515 46.7329C100.8 44.7459 99.4213 42.9036 97.4342 42.6179L90.0318 41.5537C88.0448 41.2681 86.2025 42.6472 85.9168 44.6343L84.8525 52.0376C84.567 54.0245 85.9461 55.867 87.933 56.1526L95.3354 57.2169Z" fill="var(--fill-0, #5E6EB3)"/>
</g>
</svg>
