<svg width="270" height="170" viewBox="0 0 270 170" fill="none" xmlns="http://www.w3.org/2000/svg">
<path d="M237.528 92.3145C253.07 92.3145 265.909 104.448 266.787 119.965L269.619 170H0L2.83203 119.965C3.71036 104.448 16.5489 92.3145 32.0908 92.3145H237.528Z" fill="#FF8519"/>
<path d="M10.9231 30.5481C6.84845 25.2221 11.4777 17.6746 18.0723 18.8914L100.921 34.177C104.43 34.8246 107.454 37.0351 109.135 40.1828L136.97 92.3145H58.1795L10.9231 30.5481Z" fill="#3A664B"/>
<path d="M130.414 5.86125C130.414 2.62417 133.038 0 136.275 0C139.512 0 142.136 2.62417 142.136 5.86125V109.899H159.72C162.957 109.899 165.581 112.523 165.581 115.76C165.581 118.997 162.957 121.621 159.72 121.621H112.83C109.593 121.621 106.969 118.997 106.969 115.76C106.969 112.523 109.593 109.899 112.83 109.899H130.414V5.86125Z" fill="#202020"/>
</svg>
