<svg width="62" height="94" viewBox="0 0 62 94" fill="none" xmlns="http://www.w3.org/2000/svg">
<path d="M29.6445 39.5098C29.6445 35.4749 26.3737 32.2042 22.3389 32.2041H7.30566C3.27071 32.2041 0 35.4748 0 39.5098V54.543C2.91853e-05 58.5779 3.27072 61.8486 7.30566 61.8486H22.3389C26.3737 61.8485 29.6445 58.5778 29.6445 54.543V39.5098ZM29.6445 7.30566C29.6445 3.27077 26.3737 9.68983e-05 22.3389 0H7.30566C3.27071 0 0 3.27071 0 7.30566V22.3389C0.000101345 26.3737 3.27077 29.6445 7.30566 29.6445H22.3389C26.3737 29.6444 29.6444 26.3737 29.6445 22.3389V7.30566ZM61.998 39.3594C61.998 35.3245 58.7272 32.0529 54.6924 32.0527H39.6592C35.6242 32.0527 32.3525 35.3244 32.3525 39.3594V54.3926C32.3527 58.4274 35.6243 61.6982 39.6592 61.6982H54.6924C58.7271 61.6981 61.9979 58.4273 61.998 54.3926V39.3594ZM61.999 71.5615C61.9989 67.5268 58.728 64.2561 54.6934 64.2559H39.6592C35.6245 64.2561 32.3536 67.5268 32.3535 71.5615V86.5947C32.3535 90.6295 35.6244 93.9001 39.6592 93.9004H54.6934C58.7281 93.9001 61.999 90.6295 61.999 86.5947V71.5615Z" fill="#5E6EB3"/>
</svg>
