<svg width="62" height="62" viewBox="0 0 62 62" fill="none" xmlns="http://www.w3.org/2000/svg">
<path d="M54.7627 31.9814C58.7599 31.9815 61.9998 35.2216 62 39.2188V54.4609C62 58.4583 58.76 61.6991 54.7627 61.6992H39.5205C35.5231 61.6992 32.2822 58.4583 32.2822 54.4609V39.2188C32.2824 35.2216 35.5233 31.9815 39.5205 31.9814H54.7627ZM22.4795 31.9805C26.4769 31.9805 29.7178 35.2214 29.7178 39.2188V54.4609C29.7176 58.4582 26.4768 61.6982 22.4795 61.6982H7.23828C3.24098 61.6982 0.000148991 58.4582 0 54.4609L0 39.2188C0 35.2214 3.24089 31.9805 7.23828 31.9805H22.4795ZM54.7627 0.000976563C58.7599 0.00105934 61.9998 3.24112 62 7.23828V22.4805C62 26.4778 58.76 29.7187 54.7627 29.7188H39.5205C35.5231 29.7187 32.2822 26.4778 32.2822 22.4805V7.23828C32.2824 3.24108 35.5233 0.000999796 39.5205 0.000976563L54.7627 0.000976563ZM22.4805 0C26.4779 0 29.7188 3.24089 29.7188 7.23828V22.4805C29.7186 26.4777 26.4778 29.7178 22.4805 29.7178H7.23926C3.24197 29.7178 0.00114303 26.4777 0.000976562 22.4805L0.000976562 7.23828C0.000976562 3.24089 3.24186 0 7.23926 0L22.4805 0Z" fill="#FF8419"/>
</svg>
