<svg width="127" height="30" viewBox="0 0 127 30" fill="none" xmlns="http://www.w3.org/2000/svg">
<path d="M22.4707 0C26.5293 0 29.8201 3.29009 29.8203 7.34863V22.4707C29.8203 26.5294 26.5294 29.8203 22.4707 29.8203H7.34863C3.29006 29.8201 0 26.5293 0 22.4707V7.34863C0.000230915 3.29021 3.2902 0.000203512 7.34863 0H22.4707ZM54.8652 0C58.9238 7.37834e-05 62.2136 3.29013 62.2139 7.34863V22.4707C62.2139 26.5294 58.9239 29.8202 54.8652 29.8203H39.7432C35.6845 29.8203 32.3945 26.5294 32.3945 22.4707V7.34863C32.3948 3.29011 35.6846 4.27206e-05 39.7432 0H54.8652ZM119.651 0.000976562C123.71 0.00112045 127 3.29095 127 7.34961V22.4717C127 26.5302 123.71 29.8202 119.651 29.8203H104.529C100.471 29.8203 97.1808 26.5303 97.1807 22.4717V7.34961C97.1807 3.29086 100.471 0.000976562 104.529 0.000976562H119.651ZM87.2568 0C91.3156 0 94.6055 3.28989 94.6055 7.34863V22.4707C94.6053 26.5293 91.3155 29.8193 87.2568 29.8193H72.1348C68.0762 29.8192 64.7863 26.5292 64.7861 22.4707V7.34863C64.7861 3.28997 68.0761 0.000133438 72.1348 0H87.2568Z" fill="#DD543E"/>
</svg>
