<svg width="95" height="63" viewBox="0 0 95 63" fill="none" xmlns="http://www.w3.org/2000/svg">
<path d="M55.0273 32.7334C59.1094 32.7334 62.4189 36.0429 62.4189 40.125V55.334C62.4187 59.4159 59.1093 62.7246 55.0273 62.7246H39.8193C35.7374 62.7246 32.428 59.4159 32.4277 55.334V40.125C32.4277 36.0429 35.7372 32.7334 39.8193 32.7334H55.0273ZM87.6084 32.7324C91.6904 32.7325 94.999 36.042 94.999 40.124V55.333C94.9988 59.4148 91.6902 62.7235 87.6084 62.7236H72.3994C68.3175 62.7236 65.0081 59.4149 65.0078 55.333V40.124C65.0078 36.0419 68.3173 32.7324 72.3994 32.7324H87.6084ZM22.6006 0.000976562C26.6825 0.00121094 29.9912 3.31062 29.9912 7.39258V22.6016C29.991 26.6833 26.6823 29.992 22.6006 29.9922H7.3916C3.30965 29.9922 0.000236067 26.6835 0 22.6016V7.39258C0 3.31048 3.3095 0.000976562 7.3916 0.000976562H22.6006ZM55.1807 0C59.2627 1.79117e-05 62.5722 3.30959 62.5723 7.3916V22.6006C62.5723 26.6827 59.2627 29.9922 55.1807 29.9922H39.9717C35.8896 29.9921 32.5801 26.6827 32.5801 22.6006V7.3916C32.5802 3.30961 35.8897 5.02821e-05 39.9717 0H55.1807Z" fill="#7B9C87"/>
</svg>
