<svg preserveAspectRatio="none" width="100%" height="100%" overflow="visible" style="display: block;" viewBox="0 0 266 178.32" fill="none" xmlns="http://www.w3.org/2000/svg">
<g id="Group 2147230780">
<path id="Vector 21" d="M64.1071 98.4038L8.7823 26.0898C5.57887 21.9027 9.21762 15.9689 14.4021 16.9255L102.225 33.1295C103.95 33.4477 105.435 34.5341 106.261 36.0809L132.851 85.8786C134.774 89.4809 132.442 93.8853 128.382 94.319L69.2937 100.631C67.2946 100.845 65.3287 100.001 64.1071 98.4038Z" fill="var(--fill-0, #3A664B)"/>
<path id="Rectangle 14" d="M234.247 90.32H31.7525C16.3978 90.32 3.74327 102.366 2.98745 117.702L0 178.32H266L263.013 117.702C262.257 102.366 249.602 90.32 234.247 90.32Z" fill="var(--fill-0, #FF8519)"/>
<path id="Vector 12" d="M133.76 4.32L133.76 108" stroke="var(--stroke-0, #3A664B)" stroke-width="8.64" stroke-linecap="round"/>
<path id="Vector 23" d="M116.48 107.999L151.04 107.999" stroke="var(--stroke-0, #3A664B)" stroke-width="8.64" stroke-linecap="round"/>
</g>
</svg>
