<svg preserveAspectRatio="none" width="100%" height="100%" overflow="visible" style="display: block;" viewBox="0 0 93.4355 61.6904" fill="none" xmlns="http://www.w3.org/2000/svg">
<path id="Type04" d="M54.1221 32.1934C58.1368 32.1935 61.3916 35.4481 61.3916 39.4629V54.4209C61.3916 58.4357 58.1368 61.6903 54.1221 61.6904H39.1631C35.1483 61.6903 31.8936 58.4357 31.8936 54.4209V39.4629C31.8936 35.4481 35.1483 32.1935 39.1631 32.1934H54.1221ZM86.165 32.1924C90.1799 32.1924 93.4355 35.447 93.4355 39.4619V54.4199C93.4355 58.4348 90.1799 61.6895 86.165 61.6895H71.207C67.1922 61.6894 63.9375 58.4348 63.9375 54.4199V39.4619C63.9375 35.4471 67.1922 32.1924 71.207 32.1924H86.165ZM54.2715 0C58.2863 0 61.5409 3.25478 61.541 7.26953V22.2285C61.5408 26.2432 58.2863 29.498 54.2715 29.498H39.3135C35.2987 29.498 32.0441 26.2432 32.0439 22.2285V7.26953C32.0441 3.25477 35.2987 0 39.3135 0H54.2715ZM22.2275 0C26.2424 0 29.497 3.25468 29.4971 7.26953V22.2275C29.4971 26.2424 26.2424 29.4971 22.2275 29.4971H7.26953C3.25468 29.497 0 26.2424 0 22.2275V7.26953C2.21541e-05 3.25469 3.25469 2.35787e-05 7.26953 0H22.2275Z" fill="var(--fill-0, #5E6EB3)"/>
</svg>
