<svg width="29" height="29" viewBox="0 0 29 29" fill="none" xmlns="http://www.w3.org/2000/svg">
<path d="M6.81873 14.8766C6.60773 14.4898 6.60773 14.0223 6.81873 13.6354L13.1185 2.08592C13.6097 1.18537 14.9028 1.18537 15.394 2.08592L21.6937 13.6354C21.9047 14.0223 21.9047 14.4898 21.6937 14.8766L15.394 26.4262C14.9028 27.3267 13.6097 27.3267 13.1185 26.4262L6.81873 14.8766Z" fill="#3A664B"/>
<path d="M13.6356 6.81852C14.0224 6.60753 14.49 6.60753 14.8768 6.81852L26.4263 13.1183C27.3269 13.6095 27.3269 14.9026 26.4263 15.3938L14.8768 21.6935C14.49 21.9045 14.0224 21.9045 13.6356 21.6935L2.08608 15.3938C1.18554 14.9026 1.18554 13.6095 2.08608 13.1183L13.6356 6.81852Z" fill="#3A664B"/>
</svg>
