<svg preserveAspectRatio="none" width="100%" height="100%" overflow="visible" style="display: block;" viewBox="0 0 30.3785 28.525" fill="none" xmlns="http://www.w3.org/2000/svg">
<g id="Group 60">
<path id="Union" d="M4.72842 15.5916C5.04754 15.2724 5.53882 15.2138 5.95205 15.3953C6.83651 15.7836 7.81379 15.9997 8.8417 15.9998C9.83241 15.9998 10.7766 15.7993 11.6356 15.4373C12.0458 15.2645 12.5279 15.3267 12.8427 15.6414L16.9374 19.7351C17.7817 20.5797 17.7031 21.9713 16.7685 22.7146L10.0067 28.0906C9.27814 28.6697 8.24509 28.6697 7.5165 28.0906L0.754783 22.7146C-0.17985 21.9713 -0.258422 20.5797 0.585838 19.7351L4.72842 15.5916ZM8.8417 3.19997C11.9344 3.19998 14.4411 5.70695 14.4413 8.79958C14.4413 11.8924 11.9345 14.4002 8.8417 14.4002C5.7489 14.4002 3.24209 11.8924 3.24209 8.79958C3.24227 5.70694 5.74902 3.19997 8.8417 3.19997Z" fill="var(--fill-0, #202020)"/>
<path id="Union_2" d="M19.3906 10.1815C19.6653 9.94732 20.0605 9.93141 20.3785 10.1023C21.0592 10.468 21.8248 10.702 22.6445 10.7672C23.4343 10.8299 24.1996 10.7305 24.9074 10.4963C25.2454 10.3845 25.6263 10.4638 25.8574 10.7344L28.8641 14.2589C29.4841 14.9859 29.3325 16.0908 28.54 16.6245L22.8073 20.4835C22.1895 20.8993 21.3667 20.8339 20.8223 20.3258L15.7697 15.6101C15.0714 14.958 15.0972 13.8431 15.8241 13.2231L19.3906 10.1815ZM23.4553 0.560094C25.9216 0.756 27.7627 2.91399 27.567 5.3803C27.3711 7.84676 25.2123 9.68784 22.7458 9.49192C20.2794 9.29592 18.4392 7.13723 18.6352 4.67082C18.8313 2.20461 20.989 0.364283 23.4553 0.560094Z" fill="var(--fill-0, #202020)"/>
</g>
</svg>
