<svg preserveAspectRatio="none" width="100%" height="100%" overflow="visible" style="display: block;" viewBox="0 0 101.134 33.5555" fill="none" xmlns="http://www.w3.org/2000/svg">
<g id="Group 2147230788">
<path id="Rectangle 98" d="M62.6254 16.6064C61.3187 15.5244 61.4196 13.4901 62.8269 12.5427L76.5024 3.33592C77.3519 2.76402 78.4617 2.75813 79.3172 3.32098L96.4586 14.5985C97.9367 15.5709 97.9928 17.7186 96.5676 18.7669L81.5712 29.7972C80.6322 30.4879 79.3437 30.4508 78.4459 29.7074L62.6254 16.6064Z" fill="var(--fill-0, #5B4E42)"/>
<path id="Rectangle 99" d="M36.4611 19.3542C37.9158 18.4814 38.1225 16.4551 36.874 15.3065L24.7416 4.14467C23.9879 3.45132 22.8917 3.2783 21.9611 3.70585L3.31642 12.2723C1.70875 13.011 1.32971 15.1258 2.58075 16.3768L15.7443 29.5404C16.5685 30.3646 17.8479 30.5221 18.8475 29.9224L36.4611 19.3542Z" fill="var(--fill-0, #5B4E42)"/>
</g>
</svg>
