<svg preserveAspectRatio="none" width="100%" height="100%" overflow="visible" style="display: block;" viewBox="0 0 273.6 469.319" fill="none" xmlns="http://www.w3.org/2000/svg">
<g id="Frame 2147230787">
<g id="Group 2147230785">
<path id="Vector 21" d="M68.107 98.4037L12.7822 26.0897C9.57879 21.9026 13.2175 15.9688 18.402 16.9254L106.225 33.1294C107.95 33.4476 109.435 34.5339 110.261 36.0808L136.851 85.8785C138.774 89.4808 136.442 93.8851 132.382 94.3189L73.2936 100.631C71.2945 100.845 69.3287 100 68.107 98.4037Z" fill="var(--fill-0, #3A664B)"/>
<path id="Rectangle 13" d="M237.744 89.6794H35.8559C20.5824 89.6794 7.96509 101.603 7.10193 116.852L4.31999 165.999H269.28L266.498 116.852C265.635 101.603 253.018 89.6794 237.744 89.6794Z" fill="var(--fill-0, #FF8519)"/>
<path id="Vector 12" d="M137.76 4.32L137.76 108" stroke="var(--stroke-0, #3A664B)" stroke-width="8.64" stroke-linecap="round"/>
<path id="Vector 23" d="M120.48 107.999L155.04 107.999" stroke="var(--stroke-0, #3A664B)" stroke-width="8.64" stroke-linecap="round"/>
</g>
<path id="Rectangle 14" d="M30.4763 469.319H243.124C259.669 469.319 272.813 455.411 271.878 438.892L269.28 392.999H4.32L1.72232 438.892C0.787273 455.411 13.9308 469.319 30.4763 469.319Z" fill="var(--fill-0, #FF8519)"/>
</g>
</svg>
