<svg preserveAspectRatio="none" width="100%" height="100%" overflow="visible" style="display: block;" viewBox="0 0 152.416 221.292" fill="none" xmlns="http://www.w3.org/2000/svg">
<g id="Group 54">
<path id="Union" d="M76.2074 21.4562C112.273 21.4562 135.375 49.6961 143.794 82.7384C153.916 122.463 168.588 169.888 98.5063 177.805V196.049L114.242 203.279C115.849 204.018 116.229 206.133 114.978 207.384L101.814 220.548C100.99 221.372 99.7107 221.529 98.7113 220.93L81.0971 210.361C79.6427 209.489 79.4366 207.462 80.685 206.314L89.6156 198.097V178.565C85.4138 178.819 80.9491 178.952 76.2074 178.952C71.5196 178.952 67.1028 178.822 62.9428 178.573V198.097L71.8744 206.314C73.1229 207.462 72.9159 209.489 71.4613 210.361L53.848 220.93C52.8486 221.53 51.5688 221.372 50.7445 220.548L37.5805 207.384C36.3299 206.133 36.7093 204.018 38.3168 203.279L54.0522 196.049V177.821C-16.1923 169.953 -1.507 122.49 8.62149 82.7384C17.0406 49.6962 40.1417 21.4564 76.2074 21.4562Z" fill="var(--fill-0, #352F2A)"/>
<circle id="Ellipse 30" cx="102" cy="79.714" r="22" fill="var(--fill-0, white)"/>
<circle id="Ellipse 31" cx="50.0001" cy="79.714" r="22" fill="var(--fill-0, white)"/>
<circle id="Ellipse 33" cx="62.0001" cy="79.714" r="6" fill="var(--fill-0, #352F2A)"/>
<circle id="Ellipse 34" cx="90.0001" cy="79.714" r="6" fill="var(--fill-0, #352F2A)"/>
<path id="Rectangle 95" d="M59.1952 109.473C57.0304 108.093 57.999 104.714 60.5594 104.714H91.4408C94.0012 104.714 94.9698 108.093 92.805 109.473L77.3643 119.316C76.5309 119.847 75.4692 119.847 74.6359 119.316L59.1952 109.473Z" fill="var(--fill-0, #FF8519)"/>
<path id="Rectangle 100" d="M6.19354 28.1857C5.38891 24.7719 7.50408 21.3521 10.9179 20.5475L97.371 0.170807C100.785 -0.63382 104.204 1.48135 105.009 4.89517L107.581 15.8056C108.385 19.2195 106.27 22.6392 102.856 23.4438L16.4033 43.8205C12.9895 44.6252 9.56973 42.51 8.7651 39.0962L6.19354 28.1857Z" fill="var(--fill-0, #3A664B)"/>
</g>
</svg>
