<svg preserveAspectRatio="none" width="100%" height="100%" overflow="visible" style="display: block;" viewBox="0 0 65 30" fill="none" xmlns="http://www.w3.org/2000/svg">
<g id="Group 2147230786">
<path id="Subtract" d="M58 0C61.866 0 65 3.13401 65 7V23C65 26.866 61.866 30 58 30H7C3.13401 30 1.61069e-08 26.866 0 23V7C2.57711e-07 3.13401 3.13401 3.62394e-08 7 0H58ZM30.6514 9.53418C29.7144 9.02312 28.5716 9.7014 28.5713 10.7686V19.0078C28.5715 20.075 29.7144 20.7533 30.6514 20.2422L38.2031 16.123C39.1801 15.59 39.1802 14.1863 38.2031 13.6533L30.6514 9.53418Z" fill="var(--fill-0, #202020)"/>
<path id="Subtract_2" d="M58 0C61.866 0 65 3.13401 65 7V23C65 26.866 61.866 30 58 30H7C3.13401 30 1.61069e-08 26.866 0 23V7C2.57711e-07 3.13401 3.13401 3.62394e-08 7 0H58ZM30.6514 9.53418C29.7144 9.02312 28.5716 9.7014 28.5713 10.7686V19.0078C28.5715 20.075 29.7144 20.7533 30.6514 20.2422L38.2031 16.123C39.1801 15.59 39.1802 14.1863 38.2031 13.6533L30.6514 9.53418Z" fill="var(--fill-0, #202020)"/>
</g>
</svg>
