<svg preserveAspectRatio="none" width="100%" height="100%" overflow="visible" style="display: block;" viewBox="0 0 175.429 22.8103" fill="none" xmlns="http://www.w3.org/2000/svg">
<g id="Group 2147230779">
<path id="Rectangle 1312322606" d="M92.7758 5.75867C92.9411 5.65536 93.1321 5.60059 93.327 5.60059H165.53C165.725 5.60059 165.916 5.65536 166.082 5.75867L174.018 10.7187C174.669 11.126 174.669 12.0752 174.018 12.4825L166.082 17.4425C165.916 17.5458 165.725 17.6006 165.53 17.6006H93.327C93.1321 17.6006 92.9411 17.5458 92.7758 17.4425L84.8398 12.4825C84.188 12.0752 84.188 11.126 84.8398 10.7187L92.7758 5.75867Z" fill="var(--fill-0, #202020)"/>
<g id="Group 25">
<path id="Rectangle 60" d="M72.9742 10.9083C73.143 11.2177 73.143 11.5918 72.9742 11.9012L67.9344 21.1409C67.5414 21.8613 66.507 21.8613 66.114 21.1409L61.0742 11.9012C60.9054 11.5918 60.9054 11.2177 61.0742 10.9083L66.114 1.66866C66.507 0.948225 67.5414 0.948224 67.9344 1.66866L72.9742 10.9083Z" fill="var(--fill-0, #202020)"/>
<path id="Rectangle 62" d="M67.5205 17.355C67.211 17.5238 66.837 17.5238 66.5275 17.355L57.2879 12.3152C56.5675 11.9222 56.5675 10.8877 57.2879 10.4948L66.5275 5.45497C66.837 5.28617 67.211 5.28617 67.5205 5.45497L76.7601 10.4948C77.4805 10.8877 77.4805 11.9222 76.7601 12.3152L67.5205 17.355Z" fill="var(--fill-0, #202020)"/>
</g>
<g id="Group 24">
<path id="Rectangle 60_2" d="M45.1644 10.9091C45.3332 11.2185 45.3332 11.5926 45.1644 11.902L40.1246 21.1417C39.7316 21.8621 38.6971 21.8621 38.3042 21.1417L33.2644 11.902C33.0956 11.5926 33.0956 11.2185 33.2644 10.9091L38.3042 1.66946C38.6971 0.949026 39.7316 0.949025 40.1246 1.66946L45.1644 10.9091Z" fill="var(--fill-0, #202020)"/>
<path id="Rectangle 62_2" d="M39.7109 17.3557C39.4014 17.5245 39.0274 17.5245 38.718 17.3557L29.4783 12.3159C28.7579 11.9229 28.7579 10.8884 29.4783 10.4955L38.718 5.45567C39.0274 5.28687 39.4014 5.28687 39.7109 5.45567L48.9505 10.4955C49.671 10.8884 49.671 11.9229 48.9505 12.3159L39.7109 17.3557Z" fill="var(--fill-0, #202020)"/>
</g>
<g id="Group 27">
<path id="Rectangle 60_3" d="M17.3552 10.909C17.524 11.2185 17.524 11.5925 17.3552 11.902L12.3154 21.1416C11.9224 21.862 10.8879 21.862 10.495 21.1416L5.45516 11.902C5.28637 11.5925 5.28637 11.2185 5.45516 10.909L10.495 1.66939C10.8879 0.948957 11.9224 0.948956 12.3154 1.66939L17.3552 10.909Z" fill="var(--fill-0, #202020)"/>
<path id="Rectangle 62_3" d="M11.9015 17.3555C11.592 17.5243 11.218 17.5243 10.9085 17.3555L1.66888 12.3157C0.948447 11.9227 0.948446 10.8883 1.66888 10.4953L10.9085 5.4555C11.218 5.28671 11.592 5.28671 11.9015 5.4555L21.1411 10.4953C21.8615 10.8883 21.8615 11.9227 21.1411 12.3157L11.9015 17.3555Z" fill="var(--fill-0, #202020)"/>
</g>
</g>
</svg>
