<svg preserveAspectRatio="none" width="100%" height="100%" overflow="visible" style="display: block;" viewBox="0 0 30.3781 28.525" fill="none" xmlns="http://www.w3.org/2000/svg">
<g id="Group 60">
<path id="Union" d="M4.72842 15.5916C5.04754 15.2724 5.53882 15.2138 5.95205 15.3953C6.83651 15.7836 7.81379 15.9997 8.8417 15.9998C9.83241 15.9998 10.7766 15.7993 11.6356 15.4373C12.0458 15.2645 12.5279 15.3267 12.8427 15.6414L16.9374 19.7351C17.7817 20.5797 17.7031 21.9713 16.7685 22.7146L10.0067 28.0906C9.27814 28.6697 8.24509 28.6697 7.5165 28.0906L0.754783 22.7146C-0.17985 21.9713 -0.258422 20.5797 0.585838 19.7351L4.72842 15.5916ZM8.8417 3.19997C11.9344 3.19998 14.4411 5.70695 14.4413 8.79958C14.4413 11.8924 11.9345 14.4002 8.8417 14.4002C5.7489 14.4002 3.24209 11.8924 3.24209 8.79958C3.24227 5.70694 5.74902 3.19997 8.8417 3.19997Z" fill="var(--fill-0, #202020)"/>
<path id="Union_2" d="M19.3903 10.1815C19.665 9.94722 20.0602 9.93125 20.3782 10.1023C21.0587 10.4682 21.8244 10.703 22.6441 10.7681C23.4341 10.8309 24.2 10.7307 24.9081 10.4964C25.2461 10.3845 25.6268 10.4645 25.8579 10.7354L28.8638 14.2589C29.4835 14.9859 29.3322 16.0909 28.5397 16.6245L22.8069 20.4844C22.1893 20.8999 21.3662 20.8344 20.8219 20.3267L15.7703 15.6102C15.0719 14.9581 15.0967 13.8432 15.8238 13.2231L19.3903 10.1815ZM23.4549 0.560066C25.9213 0.755973 27.7623 2.91397 27.5666 5.38027C27.3707 7.84674 25.2119 9.68781 22.7455 9.49189C20.2791 9.29589 18.4389 7.13721 18.6348 4.67079C18.8309 2.20458 20.9887 0.364256 23.4549 0.560066Z" fill="var(--fill-0, #202020)"/>
</g>
</svg>
