<svg width="23" height="23" viewBox="0 0 23 23" fill="none" xmlns="http://www.w3.org/2000/svg">
<path d="M17.3552 10.9083C17.524 11.2178 17.524 11.5918 17.3552 11.9012L12.3154 21.1409C11.9224 21.8613 10.888 21.8613 10.495 21.1409L5.45521 11.9012C5.28641 11.5918 5.28641 11.2178 5.45521 10.9083L10.495 1.66867C10.888 0.94824 11.9224 0.948238 12.3154 1.66867L17.3552 10.9083Z" fill="#202020"/>
<path d="M11.9013 17.3549C11.5918 17.5237 11.2178 17.5237 10.9084 17.3549L1.66874 12.3151C0.9483 11.9222 0.948299 10.8877 1.66873 10.4947L10.9084 5.45494C11.2178 5.28614 11.5918 5.28614 11.9013 5.45494L21.1409 10.4947C21.8614 10.8877 21.8614 11.9222 21.1409 12.3151L11.9013 17.3549Z" fill="#202020"/>
</svg>
