<svg width="65" height="30" viewBox="0 0 65 30" fill="none" xmlns="http://www.w3.org/2000/svg">
<path d="M7 0C3.13401 0 1.61069e-08 3.13401 0 7V23C2.57702e-07 26.866 3.13401 30 7 30H58C61.866 30 65 26.866 65 23V7C65 3.13401 61.866 3.62394e-08 58 0H7ZM34.3486 9.53418C35.2856 9.02312 36.4284 9.7014 36.4287 10.7686V19.0078C36.4285 20.075 35.2856 20.7533 34.3486 20.2422L26.7969 16.123C25.8199 15.59 25.8198 14.1863 26.7969 13.6533L34.3486 9.53418Z" fill="#202020"/>
<path d="M7 0C3.13401 0 1.61069e-08 3.13401 0 7V23C2.57702e-07 26.866 3.13401 30 7 30H58C61.866 30 65 26.866 65 23V7C65 3.13401 61.866 3.62394e-08 58 0H7ZM34.3486 9.53418C35.2856 9.02312 36.4284 9.7014 36.4287 10.7686V19.0078C36.4285 20.075 35.2856 20.7533 34.3486 20.2422L26.7969 16.123C25.8199 15.59 25.8198 14.1863 26.7969 13.6533L34.3486 9.53418Z" fill="#202020"/>
</svg>
